M48
; DRILL file KiCad 10.0.6 date 2026-10-01T18:21:55
; FORMAT={-:-/ absolute / metric / decimal}
; #@! TF.CreationDate,2026-10-01T18:21:55-07:00
; #@! TF.GenerationSoftware,Kicad,Pcbnew,10.0.6
; #@! TF.FileFunction,Plated,1,2,PTH
FMAT,2
METRIC
; #@! TA.AperFunction,Plated,PTH,ComponentDrill
T1C1.000
%
G90
G05
T1
X132.5Y-144.22
X132.5Y-146.76
X132.5Y-149.3
X132.5Y-151.84
X132.5Y-154.38
X140.0Y-141.68
X140.0Y-144.22
X140.0Y-146.76
X140.0Y-149.3
X140.0Y-151.84
X140.0Y-154.38
X140.0Y-156.92
X140.0Y-159.46
X140.0Y-162.0
X155.24Y-141.68
X155.24Y-144.22
X155.24Y-146.76
X155.24Y-149.3
X155.24Y-151.84
X155.24Y-154.38
X155.24Y-156.92
X155.24Y-159.46
X155.24Y-162.0
X160.0Y-114.19
X160.0Y-116.73
X160.0Y-119.27
X160.0Y-121.81
X164.75Y-148.25
X164.75Y-152.75
X171.25Y-148.25
X171.25Y-152.75
X175.75Y-137.25
X175.75Y-141.75
X175.75Y-159.25
X175.75Y-163.75
X182.25Y-137.25
X182.25Y-141.75
X182.25Y-159.25
X182.25Y-163.75
X186.75Y-148.25
X186.75Y-152.75
X190.0Y-112.0
X190.0Y-114.54
X190.0Y-117.08
X190.0Y-119.62
X190.0Y-122.16
X190.0Y-124.7
X190.0Y-127.24
X193.25Y-148.25
X193.25Y-152.75
M30
